<svg width="17" height="17" viewBox="0 0 17 17" fill="none" xmlns="http://www.w3.org/2000/svg">
<path d="M16.2358 14.2691L16.2348 14.2682L11.3625 9.57346L11.3622 9.57323L10.258 8.52316L16.2348 2.77852C16.3597 2.65842 16.4614 2.52468 16.5255 2.37697C16.5885 2.2316 16.6268 2.07302 16.6268 1.9133C16.6268 1.74551 16.602 1.58551 16.5248 1.43634C16.4624 1.29283 16.3743 1.14709 16.2591 1.03639L16.2591 1.03634L16.2572 1.03463C16.1333 0.927496 15.9949 0.830304 15.8421 0.769098C15.6887 0.707668 15.5118 0.683765 15.3496 0.683765C15.1842 0.683765 15.0203 0.72044 14.8584 0.780295L14.8584 0.780278L14.8571 0.780777C14.7043 0.841981 14.5654 0.939367 14.4523 1.04807L14.4869 1.08412L14.4523 1.04807L7.57504 7.65813C7.46036 7.76836 7.37172 7.90254 7.30865 8.04801L7.30864 8.048L7.30811 8.04932C7.2457 8.20528 7.20732 8.36351 7.20732 8.52336C7.20732 8.68308 7.24564 8.84166 7.30865 8.98703C7.37172 9.1325 7.46036 9.26667 7.57504 9.37691L14.4523 15.987L14.4523 15.987L14.4532 15.9879C14.6943 16.2074 15.0106 16.3162 15.3375 16.3162C15.6667 16.3162 15.9827 16.1825 16.2105 15.9636C16.4504 15.733 16.5779 15.4402 16.5782 15.1227C16.5906 14.8045 16.4631 14.4998 16.2358 14.2691Z" fill="#181725" stroke="#181725" stroke-width="0.1"/>
<path d="M1.20627 2.73086L1.20718 2.73176L6.07956 7.42654L6.0798 7.42677L7.18405 8.47683L1.20723 14.2215C1.08227 14.3416 0.980568 14.4753 0.916537 14.623C0.85352 14.7684 0.815208 14.927 0.815208 15.0867C0.815208 15.2545 0.840044 15.4145 0.917237 15.5637C0.979631 15.7072 1.06776 15.8529 1.18293 15.9636L1.18288 15.9637L1.18486 15.9654C1.30871 16.0725 1.44712 16.1697 1.59995 16.2309C1.75334 16.2923 1.93018 16.3162 2.09241 16.3162C2.25778 16.3162 2.42171 16.2796 2.58362 16.2197L2.58363 16.2197L2.58488 16.2192C2.7377 16.158 2.87665 16.0606 2.98975 15.9519L2.95511 15.9159L2.98975 15.9519L9.86697 9.34187C9.98166 9.23164 10.0703 9.09746 10.1334 8.95199L10.1334 8.952L10.1339 8.95068C10.1963 8.79472 10.2347 8.63649 10.2347 8.47664C10.2347 8.31692 10.1964 8.15834 10.1334 8.01297C10.0703 7.8675 9.98166 7.73333 9.86697 7.62309L2.98976 1.01304L2.98977 1.01302L2.98877 1.01211C2.74767 0.792577 2.43147 0.683762 2.10457 0.683762C1.77535 0.683762 1.45927 0.817499 1.23153 1.03639C0.991576 1.26702 0.864077 1.55977 0.863811 1.87726C0.851369 2.1955 0.978913 2.5002 1.20627 2.73086Z" fill="#181725" stroke="#181725" stroke-width="0.1"/>
</svg>
